<svg xmlns="http://www.w3.org/2000/svg" width="200" height="200" viewBox="0 0 200 200">
  <rect width="200" height="200" fill="white"/>
  <rect x="10" y="10" width="40" height="40" fill="black"/>
  <rect x="60" y="10" width="10" height="10" fill="black"/>
  <rect x="80" y="10" width="10" height="10" fill="black"/>
  <rect x="100" y="10" width="40" height="40" fill="black"/>
  <rect x="10" y="60" width="10" height="10" fill="black"/>
  <rect x="30" y="60" width="10" height="10" fill="black"/>
  <rect x="50" y="60" width="10" height="10" fill="black"/>
  <rect x="70" y="60" width="10" height="10" fill="black"/>
  <rect x="90" y="60" width="10" height="10" fill="black"/>
  <rect x="130" y="60" width="10" height="10" fill="black"/>
  <rect x="150" y="60" width="40" height="40" fill="black"/>
  <rect x="10" y="80" width="10" height="10" fill="black"/>
  <rect x="40" y="80" width="10" height="10" fill="black"/>
  <rect x="60" y="80" width="10" height="10" fill="black"/>
  <rect x="110" y="80" width="10" height="10" fill="black"/>
  <rect x="130" y="80" width="10" height="10" fill="black"/>
  <rect x="10" y="100" width="40" height="40" fill="black"/>
  <rect x="60" y="100" width="10" height="10" fill="black"/>
  <rect x="80" y="100" width="10" height="10" fill="black"/>
  <rect x="100" y="100" width="10" height="10" fill="black"/>
  <rect x="120" y="100" width="10" height="10" fill="black"/>
  <rect x="140" y="100" width="10" height="10" fill="black"/>
  <rect x="170" y="100" width="20" height="20" fill="black"/>
  <rect x="30" y="130" width="10" height="10" fill="black"/>
  <rect x="60" y="130" width="10" height="10" fill="black"/>
  <rect x="90" y="130" width="10" height="10" fill="black"/>
  <rect x="110" y="130" width="10" height="10" fill="black"/>
  <rect x="150" y="130" width="10" height="10" fill="black"/>
  <rect x="170" y="130" width="20" height="20" fill="black"/>
  <rect x="10" y="150" width="40" height="40" fill="black"/>
  <rect x="60" y="150" width="10" height="10" fill="black"/>
  <rect x="80" y="150" width="10" height="10" fill="black"/>
  <rect x="100" y="150" width="10" height="10" fill="black"/>
  <rect x="120" y="150" width="10" height="10" fill="black"/>
  <rect x="140" y="150" width="10" height="10" fill="black"/>
  <rect x="170" y="160" width="20" height="20" fill="black"/>
  <rect x="10" y="60" width="40" height="40" fill="none" stroke="black" stroke-width="2"/>
  <rect x="100" y="10" width="40" height="40" fill="none" stroke="black" stroke-width="2"/>
  <rect x="150" y="60" width="40" height="40" fill="none" stroke="black" stroke-width="2"/>
  <rect x="10" y="100" width="40" height="40" fill="none" stroke="black" stroke-width="2"/>
  <rect x="10" y="150" width="40" height="40" fill="none" stroke="black" stroke-width="2"/>
  <text x="100" y="195" text-anchor="middle" font-size="10" fill="#999">QR Code</text>
</svg>
